# xmcd
#
# Track frame offsets:
#	150
#	11600
#	26000
#	37475
#	50075
#	61475
#	75650
#	85700
#	94625
#	108050
#	122104
#	137892
#	153027
#	164127
#	177552
#	190031
#	205678
#	217753
#	227578
#	236278
#	248578
#	261478
#	274622
#	286285
#	304285
#	318010
#	335220
#
# Disc length: 4734 seconds
#
# Revision: 0
# Processed by: cddbd v1.5.2PL0 Copyright (c) Steve Scherf et al.
# Submitted via: dBpowerAMP V4.0
#
DISCID=7a127c1b
DTITLE=The Manhattan Love Suicides - Burnt Out Landscapes
DYEAR=2008
DGENRE=Rock
TTITLE0=Jonny Boy
TTITLE1=Clusterfuck
TTITLE2=Cracked Open
TTITLE3=Sycamore Peripheral
TTITLE4=Detroit Diesel
TTITLE5=Keep It Coming
TTITLE6=You'll Never Get That Guy (Woxy session)
TTITLE7=Extra Medication
TTITLE8=Head Over Heels
TTITLE9=Kick it Back
TTITLE10=Autumn Fades In
TTITLE11=Orphans
TTITLE12=Never Far From You
TTITLE13=Suzy Jones (Woxy session)
TTITLE14=Way Out Of Reach
TTITLE15=Heat And Panic
TTITLE16=Last Stand
TTITLE17=(The Guy On The) 14th Floor (Woxy session)
TTITLE18=Burning Wire
TTITLE19=Dazzle The Blind
TTITLE20=You'll Never Get That Guy
TTITLE21=Thinking Is Killing Me
TTITLE22=Things You've Never Done (Woxy session)
TTITLE23=Wolves
TTITLE24=Sitting Target
TTITLE25=Finding The End Of The Line
TTITLE26=Life In Vain
EXTD=
EXTT0=
EXTT1=
EXTT2=
EXTT3=
EXTT4=
EXTT5=
EXTT6=
EXTT7=
EXTT8=
EXTT9=
EXTT10=
EXTT11=
EXTT12=
EXTT13=
EXTT14=
EXTT15=
EXTT16=
EXTT17=
EXTT18=
EXTT19=
EXTT20=
EXTT21=
EXTT22=
EXTT23=
EXTT24=
EXTT25=
EXTT26=
PLAYORDER=
